<svg width="271" height="360" viewBox="0 0 271 360" fill="none" xmlns="http://www.w3.org/2000/svg">
<path d="M17.1383 33.8624L10.8827 33.1548L5.96752 34.5237C17.2303 34.3848 28.5784 41.1166 32.9088 51.7236C33.0928 51.9881 37.7779 48.9329 38.4087 48.4502C39.1972 47.8484 38.3562 46.8896 39.4732 47.0946C39.1578 49.581 36.5557 52.4576 34.2164 53.0461L35.2021 55.0233C37.9882 53.5024 39.8149 50.5928 41.484 48.0799C40.8269 46.4664 39.6901 44.8727 38.941 43.3253C38.6847 42.7963 38.8884 41.9035 38.5007 41.1232C37.0551 38.2467 31.0032 36.3025 33.0139 30.9924L36.8448 24.6044C37.3048 27.8712 34.2558 29.4384 34.9786 32.7646C35.5372 35.3304 38.5993 36.0314 40.0383 38.2533C41.4774 40.4752 41.5497 42.8624 42.4039 45.1306C45.0783 52.1864 56.6959 61.1468 61.8213 67.2504C64.9754 70.9999 66.6116 76.0719 71.1982 78.3136C76.317 80.8199 80.5159 80.3901 85.8253 80.7868C88.1712 80.9654 90.7142 82.0168 93.3557 81.4745L92.6986 79.4907C94.6634 78.7897 95.2876 81.0645 96.3915 81.3886C101.425 82.8632 107.871 77.9764 113.062 78.1681L109.58 80.2842L100.577 84.1197C102.588 87.8823 103.699 91.9294 103.193 96.3335C102.89 98.9852 100.321 102.53 102.213 104.639C102.673 105.155 103.416 105.115 103.725 105.413C103.876 105.565 105.486 107.906 105.749 108.342C106.899 110.227 108.272 113.031 108.469 115.193C110.27 114.545 110.191 112.184 110.953 110.749C112.366 108.098 115.08 105.287 117.34 103.29C118.076 102.636 118.424 101.71 119.64 101.968L115.362 109.89C108.975 124.821 124.088 137.095 118.68 152.245L113.732 160.815C115.047 160.987 116.019 160.213 117.314 160.127C129.812 159.261 145.195 165.206 156.687 158.09C157.101 157.839 157.456 157.561 157.752 157.178C157.949 156.603 157.128 155.63 156.753 155.531C155.919 155.306 151.089 156.761 149.571 156.88C142.408 157.429 132.742 156.728 126.033 154.057C125.1 153.686 123.852 153.356 123.589 152.218C125.764 151.967 127.821 153.21 129.845 153.528C140.569 155.194 145.195 152.403 154.815 151.57C157.548 151.332 160.867 151.127 162.674 153.554C166.215 158.309 158.757 163.718 154.657 165.298C143.085 169.762 131.514 166.595 120.001 165.417C119.035 165.318 118.05 165.067 118.332 166.436C118.7 167.157 120.757 168.069 121.605 168.433C137.014 174.993 149.058 174.384 165.315 174.708C166.11 174.722 167.766 174.219 167.615 175.37L157.417 177.34C145.582 178.299 134.201 178.326 122.761 174.55C118.825 173.247 112.97 170.966 111.242 166.971C109.836 163.718 112.063 162.296 112.937 159.036C113.45 157.118 114.1 153.858 114.376 151.888C114.909 148.099 114.784 144.422 114.376 140.672C109.961 131.143 107.069 119.035 100.886 110.604C98.5074 107.364 94.0785 102.14 89.7745 104.004C89.1174 104.031 89.7416 102.702 89.0451 102.602C78.3409 101.108 66.5788 100.189 56.3739 95.8838C49.1524 92.8353 50.7557 89.1586 47.0036 84.1527C43.5538 79.5502 40.564 76.5745 37.607 71.1255C35.5043 67.2504 33.671 63.1968 32.1925 59.0505L26.3377 58.3297C25.5229 56.1078 29.0056 54.0579 29.0056 52.7155C28.9596 51.9947 28.5193 51.4458 28.2039 50.8374C26.2523 47.0747 22.2045 43.5105 18.6825 41.2423C12.9065 37.5126 6.95317 35.7999 0.0535875 35.8528C-0.176399 34.7286 0.362424 34.517 1.12466 33.9549C4.39047 31.5545 10.5935 31.9182 14.5099 31.8851L8.59593 22.6272C9.81157 22.3693 10.1533 23.2951 10.8958 23.9498C14.155 26.8462 15.9752 29.617 17.1383 33.869V33.8624ZM38.1656 60.9749C38.9344 62.39 39.7032 64.764 40.6954 66.6949C44.2109 73.5722 48.5018 82.559 52.9701 88.7288C54.6983 91.116 59.4886 92.8089 62.2944 93.8934C65.9479 95.3085 71.0011 97.0477 74.7925 97.8478C79.7471 98.8927 85.0171 99.3952 90.0833 99.3225V88.4114C90.0833 87.9154 88.1055 85.548 89.0977 84.7743C92.7709 87.9683 92.0546 92.9015 92.0546 97.3387C94.4662 95.3284 96.4244 89.3636 96.0104 86.4077C95.7936 84.8669 93.7828 84.3048 92.3701 84.1263C85.6348 83.2864 77.0267 83.4584 70.7054 82.1226C66.6707 81.2695 64.3906 79.5502 62.1696 76.1645C61.4533 75.0667 61.0985 73.6979 60.4085 72.6465C55.7891 65.6038 50.5717 59.3878 45.0717 53.0329C44.2766 54.0975 44.2635 55.5259 43.4553 56.6964C43.153 57.1328 42.2593 57.9131 41.7862 58.3231C40.5969 59.3547 40.2946 59.1696 39.4864 59.6457C40.2749 56.8352 43.015 54.9374 42.7719 51.7103C40.932 52.8543 40.1895 54.8448 38.5139 56.3525C36.7331 57.9528 35.1823 57.1725 37.2062 60.3136C37.5019 60.7765 38.1393 60.9021 38.1722 60.9682L38.1656 60.9749ZM100.59 102.636C101.379 98.3174 101.944 93.5628 100.268 89.4033L98.6191 86.7648C99.2302 92.0418 97.7517 96.4525 94.6765 100.652L100.59 102.636Z" fill="#191919" fill-opacity="0.15"/>
<path d="M38.8226 60.3136C38.9869 60.1681 38.9606 59.9499 39.4797 59.6523C39.4797 60.1218 38.9541 60.1615 38.8226 60.3136Z" fill="#191919" fill-opacity="0.15"/>
<path d="M38.1656 60.9749C38.0473 60.221 38.7636 60.3665 38.8227 60.3136C38.7702 60.3731 38.9147 61.0939 38.1656 60.9749Z" fill="#191919" fill-opacity="0.15"/>
<path d="M105.19 166.118L94.3282 168.737C86.7124 170.139 72.3678 171.296 66.1844 175.462C61.151 178.855 59.3637 186.36 60.6188 192.127C61.105 194.362 65.4485 197.562 67.0913 199.5C69.3254 202.125 71.369 205.577 73.636 208.123C77.4801 212.428 82.8617 215.642 86.8044 220C91.6012 225.303 95.3796 231.684 99.9201 237.219C100.4 237.808 101.182 238.628 101.905 238.859C101.642 232.101 107.674 228.497 110.762 223.63C111.663 222.202 113.496 219.094 112.773 217.678C110.598 215.007 106.202 213.764 104.231 211.066C103.291 209.783 101.642 205.564 101.379 204.016C100.301 197.543 101.484 194.183 101.898 188.258C102.443 180.455 100.774 177.096 92.7117 176.038C92.6591 174.794 95.5176 175.363 96.2009 175.502C99.999 176.282 103.449 177.757 104.415 181.784C106.215 189.303 103.85 197.185 106.833 204.479C108.614 208.824 112.379 209.399 115.684 212.104C119.646 215.344 119.988 218.829 117.826 223.458C116.762 225.733 114.022 227.975 113.088 229.932C112.543 231.069 113.529 230.798 114.094 230.897C115.296 231.109 116.413 231.526 117.616 231.658C118.648 233.629 118.372 236.942 117.373 238.873C116.302 240.942 111.308 244.368 109.474 246.133C108.673 245.38 109.612 243.515 109.948 242.642C110.605 240.936 111.643 239.812 112.307 238.403C112.484 238.019 112.964 236.657 112.76 236.214C111.104 237.649 109.225 238.873 107.405 240.076C106.603 240.605 104.158 241.161 104.553 242.483C105.315 243.435 106.445 244.196 107.188 245.128C117.228 257.633 131.56 266.521 143.644 277.214C144.386 277.868 144.728 278.794 145.944 278.536C145.3 274.205 141.265 272.009 138.702 268.961C137.198 267.169 134.904 263.928 133.984 261.806C131.823 256.82 132.342 252.237 131.363 247.251C130.383 242.265 126.907 238.859 121.631 239.521C121.473 238.377 123.149 238.859 123.924 238.866C129.023 238.879 130.725 240.717 132.48 245.465C134.996 252.29 133.833 257.732 139.024 264.008C142.428 268.128 147.521 270.779 149.564 275.884C152.094 282.226 148.947 287.331 142.671 282.821C141.16 281.73 139.865 279.733 138.394 278.529C130.377 271.97 121.131 266.99 113.397 260.04C99.2368 247.317 87.9674 230.937 75.2853 217.731C70.6265 212.878 67.8798 208.387 63.8057 203.474C62.3732 201.748 60.2771 200.287 58.8972 198.495C57.5173 196.703 55.2108 192.457 55.3817 190.381C55.6182 187.564 56.0519 184.066 56.8799 181.315C58.9037 174.609 63.1092 172.037 69.5422 170.251C76.6521 168.274 88.2763 166.681 95.6818 166.138C98.8031 165.907 102.062 166.277 105.197 166.125L105.19 166.118ZM112.09 230.924C111.663 230.924 111.663 231.585 112.09 231.585C112.517 231.585 112.517 230.924 112.09 230.924Z" fill="#191919" fill-opacity="0.15"/>
<path d="M180.1 78.1681C180.107 77.7251 180.1 77.282 180.1 76.8456C177.163 76.7265 174.173 77.0175 171.242 76.8323C166.721 76.5414 162.082 75.2717 157.443 75.5098L150.53 74.2005L161.346 72.1835C171.86 73.0432 183.661 74.5311 194.261 73.5656C204.4 72.6332 207.711 66.0072 213.606 59.3084C215.4 57.2651 220.716 53.1585 220.88 50.7052C220.965 49.4421 219.993 48.3841 220.17 46.7639C220.315 45.4612 221.537 44.4891 221.511 43.1203C223.324 42.7301 223.994 43.9799 225.125 45.0975H225.769C225.966 45.0512 227.878 42.373 227.976 42.0292C228.443 40.4024 227.214 37.8631 229.383 37.1621L230.368 39.146C231.374 36.9175 236.9 34.6162 237.616 33.2143C238.884 30.7345 236.946 27.2429 237.268 24.5978L239.574 28.5523C243.208 35.5023 235.467 38.1871 231.354 42.1217L236.282 46.3804C242.058 39.7279 250.246 40.5744 257.802 38.326C262.179 37.0233 265.799 34.2856 270.774 35.1849C270.931 36.0975 269.67 36.0909 268.973 36.3422C263.565 38.2995 259.55 40.8653 253.866 42.3003C249.746 43.3451 245.942 43.6824 241.855 45.4215C235.172 48.2584 241.073 48.7676 241.066 51.3797C241.066 52.6163 238.72 54.653 237.485 54.9307C235.842 55.2945 234.876 54.1769 233.325 54.3554C231.821 59.2158 230.309 64.1887 228.404 68.9102C221.773 85.3496 217.128 88.9801 199.977 93.2057C197.973 93.7016 189.28 94.9448 188.754 95.4672C188.471 95.7516 188.406 96.684 187.689 97.3651C184.634 100.255 181.565 96.8493 178.477 96.6443C175.842 96.4724 173.509 97.828 170.914 98.0132C170.736 100.744 171.084 103.568 170.927 106.292C170.546 112.826 169.448 119.584 168.942 126.118C168.108 136.83 167.24 142.233 172.747 152.02C175.014 156.054 178.602 159.889 180.442 164.115C181.092 165.616 183.392 172.52 183.392 173.71V185.282L179.791 175.35C174.738 166.323 167.438 158.672 164.5 148.416C160.899 135.845 164.704 122.196 166.32 109.572C167.03 104.037 166.071 98.0727 164.855 92.5047C163.837 87.8294 161.786 82.9492 161.051 78.1483C162.01 78.3136 162.345 79.3452 162.7 80.1189C163.771 82.4334 169.422 97.0146 170.585 97.3254L176.814 95.3416C176.9 93.6818 175.139 92.9544 174.278 91.612C173.917 91.0433 172.215 87.3269 172.215 87.0756V77.487L173.693 84.2651C174.324 87.7435 178.221 93.404 181.743 94.019C182.19 94.0984 183.366 94.2637 183.385 93.6884C178.753 89.9455 176.782 83.8948 178.865 78.2012C179.134 77.9433 179.883 78.2607 180.1 78.1483C180.047 81.3423 178.878 81.5936 180.422 85.429C181.099 87.1153 184.91 92.1674 186.428 92.6105C189.28 93.4437 196.206 91.4334 199.327 90.5473C204.511 89.0793 210.123 87.0425 214.591 84.0866C219.401 75.9264 225.105 67.9844 228.055 58.991C226.695 59.2026 226.544 58.0586 226.097 57.6486C229.869 59.4804 229.481 55.6515 231.334 53.3437C229.521 52.1071 226.551 48.8337 224.855 51.4392C223.456 53.595 226.478 55.1357 226.097 57.642C225.526 57.1196 224.704 56.7757 224.1 56.0086C223.6 55.3672 223.653 54.6067 223.14 54.3356C218.028 59.6126 213.665 66.1394 208.04 70.8808C203.874 74.3856 200.227 75.4503 194.872 76.1446C191.087 76.634 186.093 76.257 182.387 76.8059C181.388 76.9514 180.948 77.6986 180.1 78.1483V78.1681ZM230.368 43.7816L228.101 47.3525C229.895 49.4223 233.608 52.0872 234.626 48.1196L230.375 43.7816H230.368ZM237.925 51.7169V50.725C236.341 48.9858 234.778 49.1313 235.297 51.7169H237.925Z" fill="#191919" fill-opacity="0.15"/>
<path d="M107.819 30.5559C110.283 25.7021 114.12 25.1797 117.031 21.6418C122.676 14.7844 114.639 7.47723 116.42 1.18845C116.847 -0.325878 122.36 -0.180397 123.609 0.454432C127.197 2.28618 124.562 7.53674 125.863 9.42801L131.422 11.4515L131.494 13.3494C135.805 13.68 140.634 14.672 144.636 16.3252C147.724 17.608 153.218 21.708 154.808 24.6044C155.518 25.9005 156.037 28.0166 155.702 29.4582C155.452 30.5228 154.243 31.323 154.506 32.5067C157.903 33.3333 159.211 39.708 158.35 42.7036C158.12 43.5104 156.904 44.046 156.477 44.8197C156.313 45.395 158.461 47.6698 158.323 49.2834C158.061 52.3583 153.842 58.2834 152.147 61.0079C150.031 61.1137 148.158 61.2459 147.264 58.991C149.577 59.0306 150.478 60.6772 152.18 58.3165C152.981 57.1989 155.774 48.9197 155.15 48.4171L150.327 47.6434C149.867 46.8829 147.396 46.5787 147.928 45.4347C148.533 44.132 152.232 41.6059 153.822 41.7712L153.086 37.2679C150.129 35.542 147.317 35.7403 143.992 35.8461C143.723 34.7087 144.426 34.5302 144.978 33.8623C146.167 32.4207 150.741 29.0284 149.61 27.2429C147.258 23.5265 138.867 19.3604 134.589 20.1077C131.54 20.6433 129.109 23.5463 125.626 22.5941C125.028 19.9953 123.793 17.9387 124.936 15.3531C123.642 15.4721 122.38 13.5015 122.301 15.6771C122.17 19.6382 121.171 23.2157 117.044 24.611C116.893 25.7947 117.774 25.1599 118.391 24.9747C120.238 24.4258 123.451 23.2289 125.258 23.2289C130.456 23.2289 136.856 26.8594 140.056 30.8799C143.512 35.2179 145.858 43.9733 145.326 49.4355C144.662 56.2731 138.84 59.2621 140.043 67.9249C140.095 68.2952 141.213 71.4362 141.357 71.5619C141.469 71.6611 143.368 71.6214 143.328 72.8845H141.357V71.5619C140.279 72.0645 139.248 70.1137 138.867 69.1085C137.907 66.6089 137.743 62.6677 138.085 60.0027C138.334 58.0585 142.389 50.143 141.357 49.0784C139.057 48.6155 138.275 50.93 136.744 52.0343C131.001 56.1673 128.136 51.9153 124.266 48.0997C122.557 46.4134 121.026 44.3502 118.996 42.8227C117.774 41.9101 111.814 38.24 110.815 38.4913C110.21 38.6434 109.974 39.5692 109.823 40.1511C107.411 49.4685 107.891 63.7191 114.12 71.5288C116.459 74.4583 119.443 76.0718 123.293 75.523C126.546 75.0601 128.885 71.4296 130.738 69.1218C131.087 68.6853 130.981 67.0983 132.164 68.5861C129.286 77.3415 120.961 81.005 113.424 74.8749C104.106 67.3033 101.622 49.8388 105.368 38.9674C105.814 37.6713 107.727 34.9666 107.194 33.8623C107.93 33.6375 107.779 33.1349 107.851 32.5397C110.729 31.8123 109.264 30.5757 110.46 29.5442C111.656 28.5126 114.896 27.8579 115.737 25.9269C114.751 26.046 112.983 26.7205 112.188 27.2164C111.61 27.5801 111.866 28.2547 111.663 28.4067C110.867 29.0019 107.996 30.384 107.851 30.5559H107.819ZM141.331 48.4105C140.293 41.8704 137.717 33.4589 131.29 30.417C124.318 27.1173 118.851 30.9262 114.396 36.1834C115.237 36.8513 116.709 36.3884 117.885 36.6397C120.54 37.215 125.961 40.5082 127.86 42.4722C129.201 43.8542 131.415 48.47 133.202 49.0122C134.99 49.5545 136.823 47.8352 138.413 47.7227C139.583 47.6434 140.233 48.4964 141.337 48.4105H141.331Z" fill="#191919" fill-opacity="0.15"/>
<path d="M107.819 32.5398C107.615 32.5927 107.372 32.5001 107.161 32.5398C107.431 31.614 107.28 31.6206 107.819 30.556C107.687 30.7081 107.884 32.0042 107.819 32.5398Z" fill="#191919" fill-opacity="0.15"/>
<path d="M107.161 33.8624C106.281 32.0306 107.004 33.0821 107.161 32.5398V33.8624Z" fill="#191919" fill-opacity="0.15"/>
<path d="M136.074 289.117L133.413 291.457C133.137 293.342 134.517 295.002 134.747 296.728C135.667 303.618 130.482 312.288 129.523 319.158L143.302 325.487C143.828 320.481 148.664 318.53 152.383 316.11C153.79 313.822 152.745 311.117 153.27 308.73C153.704 306.733 156.188 305.232 157.404 303.632C160.801 299.188 160.531 295.987 162.016 291.081C164.743 282.047 172.675 280.718 176.709 273.464C182.564 262.963 180.553 254.842 181.381 243.779C181.532 241.795 182.518 239.13 182.709 237.18C183.832 225.911 183.668 213.955 181.388 202.833C179.371 193.019 172.648 193.972 164.796 191.095C157.956 188.589 150.622 185.686 144.616 181.645L145.602 181.308C150.261 183.279 154.88 185.408 159.71 186.955C165.374 188.774 172.182 189.475 177.478 191.558C184.417 194.282 185.495 199.916 186.658 206.787C188.353 216.812 188.754 226.507 187.998 236.545C186.947 250.485 189.194 268.471 179.791 279.865C175.98 284.488 169.954 287.106 167.766 292.892C166.058 297.409 166.215 301.932 163.035 305.986C161.813 307.54 159.335 309.001 158.718 310.899C158.1 312.797 158.803 314.827 158.33 316.46C157.443 319.509 151.339 322.141 148.861 324.125C147.954 325.427 149.321 327.775 147.922 329.131C143.657 333.283 132.138 323.999 127.551 322.485C123.707 319.575 127.486 315.191 128.708 311.779C129.845 308.604 133.117 299.518 132.782 296.721C132.618 295.346 131.192 293.342 131.52 292.165C132.769 290.816 133.912 288.726 136.074 289.103V289.117Z" fill="#191919" fill-opacity="0.15"/>
<path d="M180.757 224.311C176.565 220.496 175.559 213.744 170.9 210.424C170.762 211.615 170.933 212.606 171.203 213.757C172.977 221.375 181.066 236.406 180.1 243.158C179.692 245.988 176.151 248.818 176.157 252.085L170.907 249.77L173.411 256.509C173.601 257.421 173.779 258.598 173.24 259.399C172.931 259.855 166.465 263.194 165.019 264.352C157.706 270.211 159.289 274.549 161.708 282.834L160.393 283.165L160.006 281.809C155.774 281.122 152.863 276.433 151.503 272.604C144.846 253.917 150.274 226.698 156.562 208.216C156.727 207.726 157.2 207.105 157.765 207.111C158.139 209.009 156.976 210.517 156.589 212.21C152.837 228.537 150.635 244.368 153.178 260.992C153.487 262.996 154.407 265.205 154.479 267.288C156.424 267.513 156.799 265.344 157.752 264.299C160.308 261.502 163.495 257.957 166.958 256.694C165.913 253.467 164.54 250.326 163.817 246.98C162.332 240.129 160.308 227.36 161.064 220.681C161.34 218.214 162.943 215.602 163.022 213.056C165.795 212.653 167.819 216.693 168.627 218.988C170.355 223.861 169.593 229.489 170.263 234.534C170.473 236.141 172.445 244.778 173.864 244.798C177.143 240.744 174.554 234.773 173.227 230.236C171.682 224.953 168.495 218.545 167.759 213.255C167.523 211.535 166.853 204.75 169.218 205.167C170.9 205.921 172.109 207.581 173.187 209.115C175.48 212.368 178.497 217.758 179.995 221.441C180.382 222.4 181.033 223.094 180.757 224.311Z" fill="#191919" fill-opacity="0.15"/>
<path d="M124.246 349.293C126.073 349.405 128.011 349.115 129.818 349.306C134.523 349.809 138.84 352.923 143.657 353.896C147.435 354.663 151.292 354.643 155.13 354.577C155.426 352.613 154.703 353.492 153.52 353.234C148.743 352.203 143.709 349.505 141.318 345.001C140.989 344.38 139.984 343.275 141.002 342.674C143.46 345.286 147.034 348.552 150.497 349.65C153.053 350.457 156.3 349.511 159 350.682C160.012 353.188 160.321 356.051 158.422 358.22C155.36 360.865 143.801 360.039 139.826 359.067C136.264 358.201 132.631 355.641 129.161 355.251C126.073 354.907 123.306 356.131 120.625 353.922C116.808 350.794 117.977 341.867 120.652 338.058C124.877 332.04 129.332 334.844 135.417 334.732C135.686 333.171 135.226 333.502 134.103 333.098C131.146 332.04 128.471 330.704 125.659 329.342C125.448 328.595 125.028 327.901 124.903 327.12C124.805 326.485 124.469 324.614 125.554 324.812L126.198 327.801C130.061 330.916 139.839 330.242 142.665 333.713C145.996 337.8 135.818 339.863 133.137 340.055C130.876 340.214 128.688 338.719 126.848 339.678C124.686 340.802 124.2 346.979 124.239 349.286L124.246 349.293Z" fill="#191919" fill-opacity="0.15"/>
<path d="M119.646 81.4745C120.993 81.7126 120.717 82.8632 121.013 83.7361C123.727 91.8434 124.903 98.6083 129.595 106.18C130.462 107.582 133.478 111.252 135.082 111.265C139.701 110.154 141.948 105.373 143.644 101.326C146.239 95.1168 147.567 87.8956 147.915 81.1571L149.216 76.8456C149.111 78.1417 149.807 79.1667 149.906 80.4562C150.563 89.5686 147.981 108.448 142.001 115.544C139.701 118.268 135.982 120.133 132.585 118.381C126.881 115.445 123.162 102.88 121.769 96.8625C120.632 91.9492 119.699 86.4804 119.646 81.4745Z" fill="#191919" fill-opacity="0.15"/>
<path d="M156.444 147.603C155.59 147.761 155.189 145.804 155.137 145.281C154.256 136.619 157.121 127.923 157.745 119.485C158.232 112.872 156.898 104.269 155.774 97.6891C154.65 91.1094 152.725 85.1711 151.844 78.8294C152.856 78.9815 153.08 80.066 153.494 80.8067C157.18 87.4261 160.058 98.7207 161.031 106.286C162.575 118.321 159.657 130.218 157.147 142.028C156.76 143.833 156.352 145.731 156.444 147.603Z" fill="#191919" fill-opacity="0.15"/>
<path d="M145.274 77.5068C145.162 78.922 145.425 80.4429 145.3 81.8316C144.906 86.4077 144.242 92.4782 142.33 96.6972C139.912 102.014 134.602 104.606 129.516 100.962C127.348 99.4085 125.974 96.0888 125.041 93.5627C123.51 89.4099 122.557 84.5693 122.268 80.152C125.1 82.2945 126.395 86.6061 128.281 89.6347C130.469 93.1461 132.559 97.4312 137.395 95.7053C138.696 94.6274 139.445 93.371 140.135 91.85C141.6 88.6362 143.151 82.6715 143.933 79.1204C144.189 77.9433 143.302 77.2027 145.267 77.5002L145.274 77.5068Z" fill="#191919" fill-opacity="0.15"/>
<path d="M250.41 34.5236C252.04 34.2195 252.933 32.6192 254.011 31.8653C257.211 29.6169 260.832 27.7587 264.866 27.9108C264.012 29.6434 261.469 29.6368 259.807 30.4237C255.864 32.2951 254.385 35.1981 251.718 36.8315C246.697 39.9065 247.663 35.0064 249.227 31.6801C249.989 30.06 251.415 28.4729 252.71 27.2496L250.41 34.5236Z" fill="#191919" fill-opacity="0.15"/>
<path d="M137.388 288.455H136.074L136.731 285.149H137.388V288.455Z" fill="#191919" fill-opacity="0.15"/>
<path d="M138.045 237.537C136.784 237.576 137.401 234.766 137.533 234.039C138.61 227.796 141.41 221.679 142.77 215.503L143.959 213.069L137.086 220.37L134.766 221.335L142.303 211.727C144.531 207.363 147.823 203.216 149.768 198.72C150.031 198.111 149.577 197.536 150.819 197.893C151.273 198.025 153.139 199.189 153.146 199.507C147.928 212.091 141.646 224.357 138.052 237.53L138.045 237.537Z" fill="#191919" fill-opacity="0.15"/>
<path d="M137.06 238.198C137.487 238.198 137.487 238.859 137.06 238.859C136.633 238.859 136.633 238.198 137.06 238.198Z" fill="#191919" fill-opacity="0.15"/>
<path d="M112.09 230.924C112.517 230.924 112.517 231.585 112.09 231.585C111.663 231.585 111.663 230.924 112.09 230.924Z" fill="#191919" fill-opacity="0.15"/>
</svg>
