<svg width="194" height="360" viewBox="0 0 194 360" fill="none" xmlns="http://www.w3.org/2000/svg">
<path d="M105.432 14.4714C109.568 15.4066 113.66 16.8628 117 19.5366C129.753 29.7485 128.787 55.0053 115.75 64.7402C114.771 65.4683 110.949 66.6797 111.037 66.9245C112.311 70.659 118.437 76.3644 122.661 76.0568C130.18 75.5108 130.82 76.2451 137.85 77.7703C141.428 78.5486 142.652 77.3938 145.558 80.7329C151.188 87.2166 148.953 94.7735 147.466 102.104C147.271 103.077 147.585 104.201 147.416 105.193C146.405 110.986 141.334 115.392 135.515 115.58C135.804 123.746 135.371 131.642 133.475 139.588C132.333 144.383 129.383 150.296 128.749 154.947C128.448 157.156 128.937 159.623 128.492 161.594C128.228 162.755 127.061 163.514 126.829 164.324C126.207 166.477 127.287 169.32 125.51 171.674C129.634 174.304 129.534 180.455 133.024 183.022C134.643 184.214 137.618 184.974 139.62 185.212C146.65 186.028 153.862 185.746 160.898 186.53C166.578 187.164 181.127 189.449 185.414 192.769C190.962 197.075 184.723 199.943 183.964 204.519C183.412 207.845 183.405 210.733 182.294 214.147C181.61 216.25 180.355 217.963 180.035 220.041C185.395 222.928 189.33 226.6 191.684 232.318C195.871 242.492 191.402 254.286 186.236 263.28C179.307 275.356 175.629 287.269 170.344 300.111C166.923 308.421 164.061 313.524 161.977 322.499C161.488 324.608 161.845 326.384 160.534 328.587C158.506 331.989 153.749 333.678 150.322 331.424C148.087 329.956 148.721 326.61 148.684 324.269C148.671 323.516 149.148 321.928 148.056 322.072C147.987 323.491 146.832 325.505 146.838 326.78C146.857 329.673 150.441 344.323 151.903 346.783C153.742 349.884 154.772 349.746 156.517 354.095C157.176 355.746 158.575 357.07 158.061 359.06C153.918 361.64 150.73 358.344 147.221 355.966C146.11 355.212 146.211 355.118 144.484 354.208C139.557 351.628 139.664 348.547 137.511 344.228C136.055 341.297 134.053 338.887 132.936 335.937C127.224 336.307 118.092 328.581 117.884 323.014C117.715 318.394 121.029 314.252 125.165 312.676L129.201 305.439C124.851 302.251 118.995 296.42 118.06 290.878C117.809 289.378 118.255 287.482 117.633 286.283C117.263 285.568 112.091 282.141 110.698 280.666C108.463 278.3 104.384 272.757 104.277 269.55C104.246 268.665 104.967 267.83 104.754 266.845H102.243C102.764 269.544 103.191 271.615 102.589 274.408C101.609 278.902 95.3392 281.758 95.3517 286.629C95.3643 290.2 99.6449 289.604 101.603 291.028C104.214 292.924 104.026 297.575 103.474 300.406C103.066 302.489 101.063 305.967 100.969 307.36C100.781 309.952 103.882 314.678 106.034 316.103C107.66 317.183 110.773 317.553 111.978 318.947C113.183 320.34 113.196 323.007 113.849 324.608C115.65 329.014 118.757 332.152 117.935 337.456C117.721 338.831 116.56 339.672 116.686 341.184C116.981 344.705 119.008 349.024 119.818 352.539C118.129 358.846 110.466 356.631 105.727 357.259C97.3602 358.376 94.1906 359.537 85.1084 359.273C83.8029 359.236 80.5454 360.811 80.2441 357.541C79.8926 353.687 85.1335 352.388 87.6253 351.082C89.797 349.946 94.699 348.214 94.7366 345.609C94.7617 343.82 92.0503 343.293 90.9707 342.465C85.2716 338.052 81.9388 330.583 82.7673 323.365C79.1896 323.164 75.8505 320.39 73.7102 317.672C73.1077 316.907 72.8001 315.25 72.1473 314.842C70.6033 313.856 69.3417 315.469 67.1889 312.268C62.2116 304.881 62.4438 297.933 52.0436 294.776C48.4408 293.683 44.4992 294.229 41.3421 292.924C35.8564 290.646 38.4047 282.122 40.7332 278.162C39.6725 278.105 38.662 277.653 37.9276 276.881C34.5257 273.278 34.2621 263.217 33.8479 258.365C31.7452 233.598 29.9439 200.364 42.7166 178.157C45.8298 172.747 49.5267 168.893 52.3386 163.301C53.2612 161.474 58.8725 157.715 60.8182 155.461C63.1782 152.719 65.5883 149.116 65.852 145.431C65.9963 143.41 64.9858 141.27 65.2871 139.883C65.5444 138.703 66.9001 137.015 67.4023 135.684C68.4944 132.772 68.6701 129.589 70.2267 126.897C67.4588 126.414 65.8708 129.458 63.3288 127.198C61.019 125.152 63.1468 122.227 62.6949 121.869C59.9081 121.606 56.0857 120.187 54.6107 117.708C54.1211 116.886 52.213 112.078 51.9494 111.896C48.2839 111.902 46.1122 109.649 44.1037 106.875C40.7207 105.965 36.5656 107.986 33.4964 107.433C32.5486 107.264 32.1532 106.517 31.4816 106.316C24.4896 104.207 6.4445 100.353 1.83124 95.7966C-0.252573 93.7379 -0.453424 91.0201 0.70146 88.4279C2.89197 83.5008 7.80651 80.6952 12.2691 78.0277C22.7823 71.7637 33.8793 68.525 45.4595 64.7716C48.8928 64.4766 52.2256 65.7131 54.8366 67.8848C57.1025 72.9562 60.3412 77.9147 60.8056 83.5699C61.9542 83.413 61.6467 81.5551 63.0903 81.122C64.4084 80.7329 65.7578 81.8313 67.3521 81.6869C68.6074 81.5739 69.9819 80.5006 71.1996 80.4191C73.5658 80.2496 75.8944 83.2435 78.1728 83.4255C78.8946 83.482 82.717 82.415 83.3886 81.9882C84.0602 81.5614 87.2487 76.8665 87.5123 76.0694C88.1086 74.2869 88.096 70.5712 86.8407 69.1401C86.3323 68.5627 85.4975 68.3932 84.9578 67.8848C81.9701 65.0603 80.175 62.0413 77.1497 60.0266C73.3273 57.4846 69.9819 50.1159 69.5677 45.6156C68.055 29.1271 75.5241 16.3104 91.8996 12.6763C92.2574 9.20539 94.1529 7.04626 96.5254 4.72394C96.7326 3.80129 95.1571 2.65268 95.358 1.73003C95.9919 -1.09441 103.524 -0.441652 103.499 3.55023L102.287 6.56297C103.7 9.17401 105.808 11.2453 105.407 14.4777L105.432 14.4714ZM101.622 3.8515C102.632 2.98534 98.3331 -0.152931 97.2347 2.28237L101.622 3.8515ZM94.1152 12.6136L101.93 13.9316C105.262 14.0195 103.838 11.3206 102.545 9.51922C102.112 8.92295 99.1051 5.86 98.7222 5.7784C95.8036 6.40606 93.6068 9.65731 94.1152 12.6073V12.6136ZM75.8882 35.8619C76.7606 32.6734 78.2795 29.5163 80.8968 27.376C84.2924 24.6018 90.5439 24.6959 90.977 19.2541C91.3912 14.1011 87.7006 15.5824 84.5058 17.1829C77.9782 20.4467 76.0011 26.8864 75.2354 33.6463C75.1664 34.2676 74.8525 36.0439 75.8819 35.8619H75.8882ZM110.409 44.0214C111.539 40.7513 113.447 37.2113 113.598 33.6651C113.767 29.7234 110.503 21.6518 107.61 18.8964C107.196 18.501 103.448 15.9903 103.091 15.8836C102.043 15.5824 94.699 15.5949 94.0587 16.0468C89.7907 23.5159 98.0946 23.1958 102.237 26.1521C107.88 30.1879 109.587 35.1463 109.788 41.8246C109.813 42.5903 109.323 44.1657 110.415 44.0151L110.409 44.0214ZM113.547 56.5745C108.677 56.0849 108.853 64.803 111.972 64.7591C115.901 64.7089 121.563 55.1748 122.824 51.7227C125.856 43.4502 124.632 29.7673 118.575 22.9824C117.451 21.7271 110.309 16.5929 109.154 17.6536L111.978 22.6749C114.514 22.9636 115.01 25.3863 116.064 26.1207C116.943 26.7358 117.828 26.3466 118.87 27.7086C122.774 32.8052 123.044 41.8371 121.424 47.8061C120.527 51.1201 115.568 60.717 112.606 62.2108C111.464 62.7882 111.539 61.2254 111.658 60.6354C111.953 59.1604 113.698 58.244 113.554 56.5682L113.547 56.5745ZM108.558 45.873C109.06 37.3306 106.637 29.3343 98.3017 25.6876C96.2304 24.7838 92.5084 24.8403 92.2072 22.0535H91.5858C90.3932 26.6605 84.2046 26.0579 81.2044 28.9388C77.2753 32.7048 78.3925 36.8096 77.0368 41.0902C76.7669 41.9438 75.8442 42.22 75.5555 42.7472C74.5136 44.6804 78.1603 51.8796 78.8946 54.5032C79.1833 55.5388 78.9134 56.6812 79.2963 57.8674C79.8738 59.65 83.7338 64.4076 85.2841 65.688C87.211 67.2822 91.1088 69.2594 93.6131 69.0146C98.6532 68.5187 102.099 65.2926 105.695 62.2171C106.405 61.6082 106.725 60.7107 107.892 60.9618C108.909 62.0413 104.66 65.9453 103.819 66.6169C99.2746 70.2448 95.4898 70.9038 89.6903 70.3766C90.6694 75.8183 87.6755 79.2516 84.7381 83.3376L87.1797 91.0955C89.1819 91.472 89.9664 89.7397 91.2657 88.5597C97.5862 82.8167 103.43 76.446 112.248 73.791C113.252 73.4897 113.729 73.0567 113.541 74.4563C110.133 76.9732 106.367 78.9566 102.915 81.4045C98.6343 84.4486 95.766 87.1098 92.2072 90.7816C87.8952 95.2317 82.5915 98.2884 78.3862 103.322C76.9175 105.08 75.5618 107.207 74.6266 109.291C75.3672 109.919 89.8032 106.975 90.9581 105.858C92.0377 104.81 91.3724 103.441 91.6046 102.111C93.2679 92.5202 99.5507 85.9926 107.685 81.1597C109.129 80.2998 117.087 76.8351 117.307 76.3456C114.577 74.6635 110.29 70.3766 109.405 67.2509C109.135 66.2906 109.769 65.688 109.662 65.1419C109.556 64.5959 108.671 64.1754 108.507 63.1774C108.344 62.1794 108.35 59.1353 108.608 58.244C108.978 56.9824 111.941 55.4447 112.631 53.4738C112.399 51.0448 115.28 45.534 114.753 43.7766C114.539 43.0736 113.685 42.6029 112.92 42.7723L111.652 46.5383L108.551 45.8792L108.558 45.873ZM74.0052 39.0001V28.9577C72.9507 29.1271 72.8629 30.169 72.5741 30.9787C70.2769 37.4373 70.6096 44.8185 72.7185 51.2708L75.8819 55.9468C75.3296 52.5261 73.5282 49.4757 72.888 46.0738C72.6557 44.831 72.8252 43.695 72.7185 42.4773C72.6306 41.5233 71.6201 40.5253 72.3984 39.5839L73.9989 39.0001H74.0052ZM114.796 55.9468C117.803 47.894 121.167 39.8851 117.307 31.4683C116.215 31.3177 116.698 32.8993 116.679 33.6588C116.592 37.1046 116.504 38.3913 114.25 41.2032C114.552 41.8434 115.468 42.2012 115.75 42.7472C116.887 44.9378 113.943 52.0365 113.541 55.0053C113.372 56.2418 113.773 55.9907 114.79 55.9405L114.796 55.9468ZM49.5267 67.8722C49.4263 67.0751 48.6982 66.7236 47.9701 66.6106C43.6518 65.9453 38.8189 69.0711 34.7956 70.408C26.1466 73.2763 20.278 75.0903 12.288 79.9106C3.77069 85.0449 -4.98509 92.7964 9.35681 98.0122L9.37564 96.1418C12.357 96.1606 15.9032 95.1815 18.3699 93.5245C21.0186 91.7419 23.1715 88.2082 25.7009 86.4194C31.4251 82.3711 35.9945 80.5697 40.4508 74.8078C42.9238 71.6131 45.334 68.8074 49.5267 67.8785V67.8722ZM53.9203 70.3766L52.9976 68.5815C49.238 69.5732 45.8612 70.7657 43.2501 73.8287C42.8359 74.3182 40.9655 76.8665 41.3735 77.287L53.9265 70.3829L53.9203 70.3766ZM54.5479 71.6382C53.9642 70.9289 44.9385 76.7159 43.8464 77.6637C42.7668 83.4318 47.7755 87.0345 46.9847 92.6144L49.2129 94.8614C49.966 94.4471 49.4137 92.991 49.2442 92.3194C48.2525 88.3024 45.7168 81.2601 52.6587 82.9422L52.7089 81.122C55.4643 79.8039 56.9016 82.0823 58.9352 83.5636L54.5416 71.6382H54.5479ZM144.93 103.649C147.209 97.4912 149.06 89.382 145.482 83.3314C142.903 78.9754 138.898 79.9357 134.712 79.0382C132.798 78.6302 131.034 77.4753 128.95 77.2619C126.333 76.9921 124.098 77.8143 122.021 77.8582C121.443 77.8708 120.841 77.3373 120.232 77.4C119.228 77.5005 111.426 81.3605 109.982 82.1828C105.162 84.9444 100.134 89.7146 96.9648 94.2714C94.6487 97.5979 92.8097 100.661 93.4688 104.904C94.0399 105.519 105.049 102.732 106.995 102.425C111.564 101.703 113.083 102.174 117.753 100.002C124.349 96.9389 127.877 92.2943 131.643 86.2751C131.925 85.8294 134.373 79.7349 135.515 81.0467C135.314 84.5239 133.105 87.3923 131.749 90.4552C137.015 89.7334 141.384 91.6792 143.374 96.7255L144.93 103.636V103.649ZM41.3672 78.5424C40.683 77.8206 32.5173 83.3439 31.9524 84.8126L42.6225 86.6956L41.3672 78.5361V78.5424ZM57.6862 93.6061C58.0753 91.2461 58.7155 88.9363 58.2009 86.501C57.8494 84.8377 56.0229 81.7371 53.9203 82.3083C53.3177 82.9297 56.0731 90.4615 56.5878 91.88C56.8326 92.5453 56.8012 93.7504 57.6799 93.6061H57.6862ZM72.7499 82.3083H69.6116V82.9297H72.7499V82.3083ZM52.0373 97.6858V85.1327C52.0373 84.3482 49.8593 83.3941 49.5079 85.7416C48.8676 90.0535 53.5562 94.8551 50.4242 98.6147L48.2651 97.9934C47.424 100.83 47.9513 100.542 49.0183 102.582C50.2422 104.929 51.1962 107.653 52.3825 109.881C53.3303 111.664 55.9099 116.622 57.0334 117.783C58.7532 119.566 61.5588 120.256 63.9565 119.961V110.86C63.9565 109.919 58.6967 103.837 58.9352 101.759C57.8808 101.609 58.4268 102.826 58 103.642C57.6925 104.232 56.1108 105.312 55.4831 105.343C52.7214 105.462 53.0667 99.4997 52.031 97.6795L52.0373 97.6858ZM81.537 86.0742C80.1499 85.729 78.857 86.796 77.6017 86.6077C75.0659 86.2311 72.1034 84.4423 68.6952 84.1724C63.9816 83.7958 63.9062 84.7122 62.8581 89.0493C60.9374 96.9828 63.8184 96.8322 64.5716 102.732C64.8289 104.785 63.674 107.069 64.0318 108.268C64.7912 110.791 70.7163 110.735 72.7875 109.649C75.1287 103.605 80.2378 99.1169 84.6753 94.5538C81.6437 92.2566 81.1479 89.7711 81.537 86.0805V86.0742ZM46.8717 101.897C46.5014 101.527 45.472 101.653 45.1959 100.761C44.0849 97.1774 46.4135 91.3967 45.039 87.7375C44.8695 87.2793 44.5306 87.022 44.1916 86.7019C41.4111 89.4824 35.9819 86.4445 32.2223 86.0742C27.835 85.6411 23.8556 91.4658 20.6358 93.8948C17.8427 96.0037 13.4868 97.8176 9.98447 97.9996L13.7378 99.5813C17.3406 99.4119 28.5128 104.954 30.9544 104.239C32.0967 103.906 33.2579 98.3762 33.2579 97.0582C33.2579 95.5957 32.6867 93.7755 32.2787 92.3382C31.6825 90.2418 29.2534 87.5178 32.58 87.3295C33.6156 91.4909 35.6367 96.487 35.0655 100.799C34.7391 103.278 31.0485 106.486 35.9066 106.034C39.07 105.513 38.1222 104.653 39.1955 103.04C40.0491 101.753 41.8065 100.937 42.3463 99.2863C42.8171 97.849 42.8296 94.2149 42.6162 92.6709C42.4154 91.2335 41.0345 90.2167 41.3735 88.5848C42.5032 88.3714 42.9802 89.1183 43.3945 90.0096C45.6541 94.8614 44.2732 100.378 41.3797 104.59C42.3275 106.454 47.3048 105.393 47.6186 103.893C47.5307 103.347 47.1981 102.217 46.878 101.897H46.8717ZM53.9203 89.2125V100.196C53.9203 100.473 54.981 103.498 55.4957 103.649C57.7176 104.289 56.4497 101.063 56.4058 100.222C56.3116 98.3762 56.6317 96.4995 56.3179 94.6605L53.9203 89.2125ZM141.792 105.531C143.687 101.803 141.302 93.4052 136.971 92.4637L130.5 91.9993L126.728 96.7443C132.195 96.4807 136.865 97.9243 140.204 102.418L141.792 105.531ZM61.4521 97.372L59.6005 98.37C60.1278 100.925 61.1006 103.291 62.3936 105.531C64.6092 104.59 61.5212 99.0227 61.4521 97.372ZM137.863 101.929C137.53 101.596 135.446 100.41 134.894 100.19C130.814 98.5394 127.506 98.6712 123.264 99.2487C122.366 99.3742 118.926 102.205 116.849 102.877C107.873 105.757 99.2181 105.061 90.1422 108.808C86.0436 110.503 82.1773 109.498 78.0536 111.155L68.984 111.821L69.6367 119.949C70.8293 119.936 71.8649 120.526 73.0386 120.627C81.286 121.336 90.0041 120.306 98.1448 119.955C106.744 119.585 114.589 120.074 122.969 117.162C128.027 115.404 132.465 110.873 138.02 109.938C138.02 111.344 138.553 111.362 137.21 111.946C134.386 113.17 131.743 115.612 128.605 116.22C131.059 122.623 130.965 129.759 129.716 136.469C129.044 140.071 128.128 143.473 127.971 147.277C127.94 147.973 127.557 149.649 128.605 149.48C129.32 146.323 130.758 143.341 131.58 140.216C132.327 137.366 133.337 133.161 133.595 130.305C134.059 125.165 133.319 119.528 133.626 114.331C136.796 114.501 140.229 113.183 142.413 110.879L139.275 110.565C138.71 108.915 140.053 106.605 139.827 105.356C139.765 104.998 138.145 102.23 137.856 101.941L137.863 101.929ZM50.782 109.297L48.9179 105.808L48.5162 105.569L46.3947 106.159C46.5955 108.299 48.7358 109.718 50.7883 109.291L50.782 109.297ZM67.7287 111.808C63.6238 111.3 65.626 117.338 65.2118 120.275C64.9482 122.139 62.4815 124.311 64.9105 126.244C67.4399 125.886 66.7621 123.777 67.2265 122.284C67.4713 121.505 68.0927 120.871 68.2559 120.168C68.9212 117.262 67.6533 114.658 67.7349 111.802L67.7287 111.808ZM123.59 153.233C121.148 148.024 126.1 144.013 127.073 139.456C127.28 138.496 127.983 134.554 127.983 134.09V117.457L126.427 123.746L113.547 153.233H123.59ZM126.1 118.085C125.598 117.589 121.104 119.56 119.987 119.817C115.594 120.846 109.549 121.612 105.093 121.869C102.08 122.045 98.9921 121.694 95.9731 121.851C95.8225 125.466 93.2302 129.439 90.9519 132.207C90.1861 133.136 86.9851 135.584 87.1985 136.544C88.4789 137.831 94.1592 144.101 95.5902 143.787C101.86 138.483 104.955 130.23 108.859 123.1C109.342 122.221 108.752 121.53 110.403 121.851C110.754 128.096 107.145 133.719 103.505 138.49L97.2221 146.009C98.2891 147.559 100.203 147.289 101.628 147.886C104.045 148.89 109.593 152.599 111.878 151.915C112.945 151.595 113.83 149.656 114.288 148.651C115.951 144.986 117.225 140.712 118.87 136.914C121.556 130.738 125.328 124.888 126.088 118.091L126.1 118.085ZM77.7711 121.851H69.6242L68.9902 124.675L73.5909 124.254L77.7711 121.851ZM94.0901 121.851H80.2817C80.219 121.851 80.3257 122.597 79.9679 123.081C79.039 124.361 75.3609 124.7 74.0052 125.924C76.4091 127.688 78.9134 129.376 81.2295 131.253C82.5852 132.357 83.7025 134.655 85.6105 134.416C86.0059 132.985 86.916 133.073 87.8324 132.226C90.933 129.345 93.8642 126.338 94.0901 121.838V121.851ZM95.245 145.18C95.1509 145.061 93.2993 144.434 92.5147 143.831C89.1254 141.226 85.2151 137.335 81.8509 134.41C78.8005 131.761 76.0702 127.292 71.5009 127.506C71.1556 129.125 71.9088 128.554 72.7059 129.094C78.5055 133.06 83.8845 138.728 88.7802 143.806C89.8346 144.898 90.2175 146.229 91.6109 147.252C94.6739 149.492 100.31 151.765 104.139 151.35C102.84 148.702 96.8267 149.135 95.6655 146.938C95.358 146.36 95.4772 145.482 95.2513 145.18H95.245ZM90.3242 148.84C84.2548 142.456 78.6498 135.609 71.8084 130.01C70.007 128.535 70.3083 132.025 69.9568 133.18C69.4861 134.73 66.4231 141.245 67.101 141.935C69.7999 140.818 71.8147 142.852 73.9738 143.536C75.4425 144 76.9301 144.007 78.5682 144.59C82.4723 145.99 86.1064 148.381 90.3242 148.84ZM127.356 154.489C126.352 154.501 125.611 155.072 124.563 155.148C113.19 155.964 99.6135 152.788 88.1525 151.331C81.5119 150.484 74.7521 144.201 67.7287 143.818C67.3646 150.547 63.5171 155.851 58.6339 160.144C56.3995 162.108 51.0142 163.759 54.9559 166.326C71.0615 176.808 100.109 181.854 118.857 179.57L127.99 177.712C127.13 176.23 125.962 173.393 124.243 172.967C123.376 172.753 121.719 174.071 120.621 174.429C112.524 177.028 95.609 171.806 87.1734 169.257C81.3111 167.487 69.6179 164.016 64.7787 160.897C63.9502 160.363 63.0777 160.175 63.3351 158.888L77.1309 164.236C92.3452 168.197 108.005 171.467 123.854 170.845C125.021 169.163 125.762 167.249 125.479 165.165C119.403 165.19 113.51 163.558 107.553 162.686C95.8413 160.972 81.3927 159.999 70.8669 154.156C69.9945 153.673 69.2915 154.269 69.6179 152.612C71.6829 152.141 72.9696 153.591 74.6329 154.181C83.7527 157.42 94.7366 160.194 104.428 160.79C109.267 161.085 114.753 160.263 119.479 160.803C121.167 160.991 124.914 162.868 125.762 162.642C127.249 162.24 126.64 158.688 126.76 157.344C126.841 156.434 127.619 155.556 127.362 154.495L127.356 154.489ZM125.473 151.35L126.1 146.329C124.914 146.599 124.908 147.515 124.82 148.501C124.764 149.122 124.418 151.488 125.473 151.35ZM181.962 209.094C181.817 206.916 182.056 204.732 182.74 202.655C183.901 199.127 188.364 196.359 183.449 193.485C176.269 189.286 156.448 187.804 147.773 187.108C142.25 186.662 136.181 187.899 131.423 184.001C129.829 182.695 129.245 179.639 127.663 179.557C118.117 181.559 107.917 182.105 98.1448 181.503C89.4329 180.969 79.6666 178.402 71.3188 175.691C64.785 173.569 58.339 171.115 52.3951 167.688C48.1082 172.998 43.8276 178.967 41.0533 185.244C32.3164 205.002 33.5403 238.337 35.6932 259.652C36.0321 262.985 36.484 274.383 39.4717 275.965L40.9843 276.203C42.7668 275.676 44.6812 270.567 45.4595 268.728C49.7526 258.579 52.7905 247.545 56.5815 237.169C60.7742 225.696 65.8833 214.593 69.3229 202.837C70.6723 198.217 71.4318 191.934 73.0637 187.748C73.3524 187.014 73.6914 186.38 74.3316 185.884L75.2668 187.434C71.2812 203.276 66.6303 218.942 61.3203 234.383C57.5167 245.442 53.0729 258.98 47.9262 269.318C45.6478 273.887 39.4717 282.379 39.4466 287.25C39.4152 292.629 44.7126 291.549 47.9324 291.989C54.2655 292.849 59.3181 295.61 62.9899 300.782C65.1929 303.895 67.1324 309.795 69.3229 312.023C70.1012 312.814 70.4338 312.764 71.5009 312.664C71.6389 311.433 70.9485 310.454 70.8481 309.237C70.2581 301.912 74.4069 291.769 75.2354 284.074C76.0074 276.95 75.8442 269.349 76.5535 262.169C78.9825 237.446 84.079 212.647 92.8223 189.305C93.7575 186.022 89.5208 184.71 89.7091 181.484C91.523 181.208 91.0146 181.434 91.7239 182.287C93.2302 184.082 94.4918 186.355 95.9731 188.081C103.448 196.786 114.865 205.416 126.452 207.186C131.975 208.034 137.637 207.588 143.223 208.617C147.384 209.383 151.395 211.015 155.462 212.07C162.63 213.921 169.948 215.063 176.639 218.516C179.401 218.516 181.196 214.059 180.7 211.636C174.166 209.967 168.869 204.582 162.693 201.707C159.824 200.376 156.134 199.378 153.102 198.117C148.106 196.039 142.708 192.342 137.078 192.757C131.448 193.171 123.615 197.113 118.876 192.807C117.728 191.765 115.098 187.076 114.834 185.551C114.696 184.754 114.332 183.022 115.763 183.367C117.106 184.698 117.445 186.574 118.581 188.081C121.701 192.217 125.335 192.468 130.224 192.173C137.486 191.734 141.34 190.805 148.727 193.083C154.602 194.891 158.958 198.311 164.406 200.627C170.4 203.182 177.348 204.098 181.981 209.101L181.962 209.094ZM95.9103 190.321C95.7471 190.12 94.6236 190.315 94.1152 190.271C91.159 200.163 87.2864 209.936 85.3532 220.122C82.6731 234.27 83.4263 248.549 81.5119 262.728C80.3006 271.678 76.6727 281.902 75.9258 290.407C75.3923 296.426 75.6999 302.546 74.614 308.553C74.3755 309.864 73.4529 311.251 73.3713 312.381C73.1014 316.153 80.6018 322.825 84.6628 322.053C84.3113 319.204 88.1651 317.258 88.9496 315.35C89.5961 313.781 90.0606 309.82 90.3054 307.919C92.5147 290.658 92.4771 273.09 94.0713 255.823C95.6655 238.557 97.5799 222.689 100.429 206.32C100.681 204.889 101.032 203.069 101.503 201.732C101.779 200.954 102.168 200.144 102.884 200.941C102.978 206.364 101.195 211.643 100.404 216.978C99.557 222.677 97.6175 230.824 99.7516 235.763C99.8332 244.984 99.149 254.223 101.107 263.28C101.948 265.219 103.838 265.138 105.727 264.981C113.165 264.366 123.226 262.087 130.664 260.418C142.463 257.775 149.211 256.476 157.489 247.074C158.042 246.446 161.506 240.628 162.504 241.732C161.569 250.739 152.041 258.459 143.844 261.039C133.011 264.454 120.759 263.725 110.233 266.343C105.08 267.623 104.986 269.362 107.616 273.718C109.323 276.542 115.995 284.08 118.995 284.934C120.175 285.273 121.443 284.877 122.63 285.066C124.475 285.354 130.475 288.166 131.084 289.792C131.21 290.118 131.36 291.323 130.808 291.323L119.824 287.558C119.309 293.326 123.992 299.226 128.291 302.621C134.367 307.423 147.736 309.017 152.123 315.187C152.65 315.927 153.077 316.756 153.096 317.685C155.167 316.31 157.427 317.34 159.084 318.909C160.107 319.882 159.611 321.237 161.249 320.817C161.186 313.141 165.662 306.927 168.467 300.104C172.095 291.292 175.258 282.266 178.817 273.423C178.259 273.109 177.047 274 176.602 274.345C173.865 276.479 170.997 280.001 168.109 282.172C160.402 287.972 149.537 292.227 139.903 292.566V290.683C148.426 289.604 157.257 286.227 164.588 281.789C169.384 278.89 173.193 275.651 176.583 271.188C177.901 269.45 180.305 264.667 181.598 263.65C182.64 262.834 184.058 263.324 184.799 262.458C185.539 261.591 188 256.288 188.552 254.913C192.839 244.118 193.303 231.464 183.192 223.863C177.838 219.84 175.353 221.202 169.867 219.614C165.988 218.497 162.021 216.168 158.28 214.881C148.84 211.63 137.442 213.381 127.324 210.689C117.351 208.034 103.769 199.868 96.8832 192.167C96.2179 191.426 96.1488 190.623 95.9041 190.321H95.9103ZM144.302 210.35C139.739 209.597 135.095 209.446 130.494 209.094L133.469 210.193C136.463 210.676 139.049 211.046 142.106 210.971C142.865 210.952 144.447 211.442 144.302 210.343V210.35ZM98.4837 259.934C99.0611 254.938 97.5485 250.049 97.831 245.159C97.9188 243.622 98.3896 242.373 98.5088 240.816C98.559 240.163 98.8854 238.412 97.8561 238.594C96.5254 243.854 96.0547 250.444 96.5756 255.874C96.6949 257.135 97.1091 259.432 98.4774 259.928L98.4837 259.934ZM78.3988 271.86C79.5913 262.853 81.3425 254.009 80.9094 244.871L79.6855 248.348C79.5599 253.802 78.1665 259.307 77.8025 264.667C77.6895 266.311 77.7335 268.012 77.7711 269.657C77.7899 270.416 77.3067 271.998 78.3988 271.854V271.86ZM95.3454 282.53C95.9103 278.519 100.643 277.647 101.019 273.454C101.722 265.74 99.08 266.035 96.4689 260.38C96.1237 259.627 95.9166 258.886 95.9731 258.051C94.9437 257.888 95.3643 258.899 95.3454 259.614C95.2011 265.044 94.4416 270.517 94.0713 275.915C93.9771 277.233 93.9771 279.003 94.1152 280.308C94.1717 280.842 94.4981 282.662 95.3454 282.524V282.53ZM98.7975 260.562C98.3896 260.562 98.3896 261.19 98.7975 261.19C99.2055 261.19 99.2055 260.562 98.7975 260.562ZM92.8348 310.147C98.8666 309.833 102.017 301.925 102.294 296.659C102.57 291.392 98.308 291.976 95.0316 290.068L94.6864 299.138L92.8348 310.147ZM73.3775 306.381V302.615H72.7562V306.381H73.3775ZM150.585 317.679C150.642 316.969 150.635 316.442 150.284 315.777C148.571 312.5 139.231 310.084 135.515 308.578C134.078 307.994 132.741 307.121 131.354 306.431C129.822 306.167 128.09 311.986 126.734 312.971C131.699 316.737 134.668 319.342 141.001 320.666C142.696 321.018 144.704 321.106 146.455 321.482C147.673 319.938 148.081 317.246 150.585 317.679ZM99.739 308.891C98.2515 308.703 97.6552 310.323 96.5756 311.063C95.0065 312.136 93.9081 312.425 92.2072 311.396C91.0837 315.218 89.8033 319.618 87.1859 322.694C90.9268 323.001 94.4918 322.493 97.5485 320.196C99.3122 318.871 100.599 316.128 102.877 315.789L99.7327 308.891H99.739ZM145.551 323.334C142.947 323.076 140.342 322.694 137.856 321.928C135.371 321.162 130.262 319.122 128.172 317.804C127.004 317.07 125.473 315.143 124.538 315.143C120.722 316.034 119.134 321.263 119.931 324.784C120.803 328.606 127.889 333.715 131.743 333.991C131.944 333.822 129.527 329.974 130.802 328.976C133.576 330.778 133.501 333.753 134.75 336.326C135.427 337.726 136.783 339.038 137.511 340.469C139.024 343.438 141.905 352.225 145.332 352.771C146.386 352.94 146.794 351.208 148.062 351.572L148.144 354.635C151.175 355.526 152.757 359.035 156.222 358.476C156.222 356.003 154.012 355.03 152.952 352.645C151.665 349.758 149.933 346.952 148.991 344.053C147.842 340.5 145.997 333.47 145.583 329.887C145.338 327.771 145.696 325.474 145.545 323.34L145.551 323.334ZM114.163 329.579L110.723 320.196L103.819 316.43C103.26 316.925 103.53 318.074 103.223 318.965C101.622 323.56 98.2264 326.905 93.1298 326.491C90.0543 326.24 83.056 321.344 84.1732 327.916C84.9201 332.297 88.1211 337.801 91.5607 340.607C94.4604 342.973 94.1341 341.291 96.9397 340.933C98.5402 340.726 99.9964 341.228 101.609 340.588C104.503 339.439 109.788 332.629 112.593 330.213C113.045 329.824 113.56 329.604 114.156 329.585L114.163 329.579ZM153.09 330.232C153.096 326.46 153.391 323.07 152.293 319.417C152.098 318.771 152.085 317.528 151.213 317.679C151.458 321.488 148.759 325.041 150.441 328.801C152.744 333.941 160.797 328.932 160.025 323.679L154.351 319.555C154.188 321.909 155.18 323.679 154.947 326.114C154.86 327.043 154.452 328.073 154.326 329.278C154.238 330.156 153.968 331.261 153.096 330.225L153.09 330.232ZM100.994 319.562L92.2072 324.269C93.0168 326.171 96.8832 324.595 98.0883 323.874C99.4628 323.051 100.944 321.244 100.994 319.562ZM86.5583 357.849H95.6593C95.8413 357.849 98.8729 357.039 99.1239 356.92C99.8771 356.556 101.045 354.76 101.93 354.076C106.681 350.386 103.844 355.677 104.139 355.966C107.014 354.635 116.158 356.355 117.659 353.461C118.675 351.503 114.64 344.266 115.437 341.53C112.129 343.689 108.445 344.894 104.44 344.68C103.285 344.618 102.407 344.9 101.635 343.726C101.346 342.195 102.852 342.829 103.831 342.791C105.595 342.716 107.716 343.055 109.367 342.678C110.648 342.389 112.38 340.739 113.61 339.992C114.163 339.653 115.029 339.772 115.33 339.54C115.455 339.446 116.529 337.029 116.598 336.709C116.956 335.071 116.372 333.596 115.732 332.115C115.405 331.362 115.719 330.546 114.501 330.853C114.238 330.922 112.493 335.014 111.677 335.567C108.143 339.992 102.174 343.03 96.607 343.406C97.6489 348.666 91.4352 351.61 87.1985 352.827C87.0353 353.882 88.0521 353.398 88.7613 353.449C90.3556 353.555 92.2888 352.959 92.2134 355.332C89.7028 355.489 86.1064 354.265 86.5646 357.842L86.5583 357.849ZM86.5583 353.455C85.8365 352.796 81.2295 355.972 82.1647 357.842C84.9515 358.344 85.0394 355.012 86.5583 353.455Z" fill="#191919" fill-opacity="0.15"/>
</svg>
